<svg xmlns="http://www.w3.org/2000/svg" version="1.1" xmlns:xlink="http://www.w3.org/1999/xlink" xmlns:svgjs="http://svgjs.com/svgjs" width="700" height="699.35"><svg id="SvgjsSvg1000" xmlns="http://www.w3.org/2000/svg" viewBox="0 0 700 699.35"><defs><style>.b{fill:none;}</style></defs><path class="b" d="m0,524.51c0-13.79,11.18-24.98,24.98-24.98h24.98v-24.98c0-13.79,11.18-24.98,24.98-24.98s24.98,11.18,24.98,24.98v24.98h24.98c13.79,0,24.98,11.18,24.98,24.98s-11.18,24.98-24.98,24.98h-24.98v24.98c0,13.79-11.18,24.98-24.98,24.98s-24.98-11.18-24.98-24.98v-24.98h-24.98c-13.8,0-24.98-11.19-24.98-24.98Z"></path><path class="b" d="m699.35,349.67c0-41.32-33.61-74.93-74.93-74.93h-99.91V24.98c0-13.79-11.18-24.98-24.98-24.98s-24.98,11.18-24.98,24.98v249.77h-99.91c-41.32,0-74.93,33.61-74.93,74.93,0,76.91,4.34,148.94-48.79,317.17-5.08,16.13,6.98,32.5,23.82,32.5h374.65c11.17,0,20.98-7.42,24.03-18.16,33.07-116.63,25.93-197.15,25.93-331.51h0Zm-349.67-.01c0-13.77,11.21-24.98,24.98-24.98h249.77c13.77,0,24.98,11.21,24.98,24.98v24.98h-299.72v-24.98Zm280.54,299.72h-53.79c14.76-33.21,23.01-68.07,23.01-99.91,0-13.79-11.18-24.98-24.98-24.98s-24.98,11.18-24.98,24.98c0,31.5-10.87,67.18-29.28,99.91h-93.63c14.76-33.2,23.01-68.07,23.01-99.91,0-13.79-11.18-24.98-24.98-24.98s-24.98,11.18-24.98,24.98c0,31.5-10.87,67.18-29.28,99.91h-61.83c18.96-64.15,37.28-142.06,40.49-224.79h300.6c.76,66.88,2.53,137.84-19.38,224.79h0Z"></path><path class="b" d="m99.91,324.7c0-13.79,11.18-24.98,24.98-24.98h24.98v-24.98c0-13.79,11.18-24.98,24.98-24.98s24.98,11.18,24.98,24.98v24.98h24.98c13.79,0,24.98,11.18,24.98,24.98s-11.18,24.98-24.98,24.98h-24.98v24.98c0,13.79-11.18,24.98-24.98,24.98s-24.98-11.18-24.98-24.98v-24.98h-24.98c-13.8,0-24.98-11.18-24.98-24.98Z"></path></svg><style>@media (prefers-color-scheme: light) { :root { filter: none; } }
</style></svg>